<svg xmlns="http://www.w3.org/2000/svg" viewBox="0 0 355.1 36.3"><path d="M62.11 26.39a14.14 14.14 0 0 1-11.14 5.16 13.8 13.8 0 0 1-10-3.86 13 13 0 0 1-4-9.63 13.53 13.53 0 0 1 1.77-6.88 13.05 13.05 0 0 1 5-4.86 14.1 14.1 0 0 1 7-1.82 14.58 14.58 0 0 1 6.36 1.39 13.67 13.67 0 0 1 4.95 4.07l.33.43 3.44-2.64-.31-.43a16.72 16.72 0 0 0-6.27-5.27A19.2 19.2 0 0 0 50.7.18a18 18 0 0 0-13 5.07 16.86 16.86 0 0 0-5.22 12.52 17.91 17.91 0 0 0 4.31 12c3.41 3.93 8.12 5.92 14 5.92a19.84 19.84 0 0 0 8.43-1.76 17.15 17.15 0 0 0 6.32-5l.34-.44-3.44-2.61zM99.7 26.39a14.14 14.14 0 0 1-11.12 5.16 13.8 13.8 0 0 1-10-3.86 13 13 0 0 1-4-9.63 13.53 13.53 0 0 1 1.77-6.88 13.05 13.05 0 0 1 5-4.86 14.09 14.09 0 0 1 7-1.82 14.57 14.57 0 0 1 6.36 1.39 13.68 13.68 0 0 1 4.95 4.07l.33.43 3.44-2.64-.31-.43a16.72 16.72 0 0 0-6.27-5.27A19.2 19.2 0 0 0 88.31.18a18 18 0 0 0-13 5.07 16.85 16.85 0 0 0-5.22 12.52 17.9 17.9 0 0 0 4.31 12c3.41 3.93 8.12 5.92 14 5.92a19.84 19.84 0 0 0 8.43-1.76 17.16 17.16 0 0 0 6.32-5l.34-.44-3.44-2.61zM0 34.55h27.18v-4.63H4.69V18.81h22.49v-4.63H4.69V5.62h22.62V.99H0v33.56M278.91 23.08a39.11 39.11 0 0 0 5.36-6.85 11.49 11.49 0 0 0 1.42-5.57A10.45 10.45 0 0 0 274.89.17a11.15 11.15 0 0 0-8.18 3.32 12 12 0 0 0-3.45 8.45v.47h4.1v-.42a8.82 8.82 0 0 1 2.3-5.73 6.74 6.74 0 0 1 5-2 6.65 6.65 0 0 1 4.85 1.91 6.06 6.06 0 0 1 2 4.54 7.92 7.92 0 0 1-1.11 4 41.23 41.23 0 0 1-5 6.12l-13.52 14.61h24.27v-4.15h-14.89zM308.28 2.13a10.44 10.44 0 0 0-6.17-2 10.21 10.21 0 0 0-6.08 2 12.41 12.41 0 0 0-4.18 5.7 37.72 37.72 0 0 0 0 20.84 12.45 12.45 0 0 0 4.18 5.71 10.19 10.19 0 0 0 6.06 1.93 10.46 10.46 0 0 0 6.19-2 12.94 12.94 0 0 0 4.34-5.84 34.43 34.43 0 0 0 0-20.5 13 13 0 0 0-4.34-5.84zm.63 24.65a8.59 8.59 0 0 1-2.79 4.2 6.17 6.17 0 0 1-7.82 0 8.72 8.72 0 0 1-2.84-4.2 36.42 36.42 0 0 1 0-16.9 8.79 8.79 0 0 1 2.83-4.19 6.13 6.13 0 0 1 7.81 0 9.3 9.3 0 0 1 2.93 4.51 25.49 25.49 0 0 1 1.09 8.15 25.9 25.9 0 0 1-1.21 8.43zM317.47 5.21h5.62v30.25h4.24V1.01h-7.3l-2.56 4.2M352.18 18.1a9.55 9.55 0 0 0-7.11-3 10.31 10.31 0 0 0-2.37.29l8.64-13.08-3.52-2.3-10.42 15.54a27.59 27.59 0 0 0-3 5.56 13 13 0 0 0-.86 4.48 11 11 0 0 0 1.4 5.4 10.05 10.05 0 0 0 3.88 3.93 10.74 10.74 0 0 0 5.35 1.39 11.29 11.29 0 0 0 5.55-1.44 10.32 10.32 0 0 0 4-3.89 10.78 10.78 0 0 0 1.41-5.46 10.31 10.31 0 0 0-2.95-7.42zm-3.21 12.1a6.61 6.61 0 1 1 1.93-4.66 6.31 6.31 0 0 1-1.93 4.66zM118.17 34.55h27.18v-4.63h-22.49V18.81h22.49v-4.63h-22.49V5.62h22.62V.99h-27.31v33.56M177.14.99h-5.45l-7.3 11.8-7.27-11.8h-5.49l10 16.26-10.71 17.3h5.5l7.94-12.86 7.92 12.86h5.49l-10.65-17.32L177.14.99M203.9 4.55a9 9 0 0 0-4.88-3 36.93 36.93 0 0 0-7.59-.5h-7.13v33.5h4.67V19.63h1.55a41.54 41.54 0 0 0 8.33-.54 9.13 9.13 0 0 0 5.09-3.05 9.71 9.71 0 0 0-.04-11.49zm-3.64 8.36a4.17 4.17 0 0 1-2 1.65 13.6 13.6 0 0 1-4.54.55l-4.69-.06v-9.4h4.92a13.28 13.28 0 0 1 4.4.51 4.05 4.05 0 0 1 2 1.62 4.52 4.52 0 0 1 .75 2.54 4.59 4.59 0 0 1-.84 2.55zM213.35 26.15c1-.14 2.1-.33 3.25-.57a12.82 12.82 0 0 1-2.42-7.69 13.58 13.58 0 0 1 1.74-6.82 13.32 13.32 0 0 1 11.4-6.66 13.26 13.26 0 0 1 6.67 1.81 12.8 12.8 0 0 1 6.56 10.55 43.59 43.59 0 0 0 3.8-2.33 16.38 16.38 0 0 0-4.72-8.92 17.07 17.07 0 0 0-12.46-5 16.89 16.89 0 0 0-14.78 8.6 17.54 17.54 0 0 0-2.28 8.75 16.57 16.57 0 0 0 2.16 8.37z" fill="#323333"/><path d="M215.18 18.32q0 .52.07 1a91.6 91.6 0 0 1 10.65-4.61 89.08 89.08 0 0 1 11.94-3.48q-.27-.45-.59-.87a91.26 91.26 0 0 0-11.69 3.44 94 94 0 0 0-10.38 4.52zM240.38 20.15a13.2 13.2 0 0 1-1.52 4.39 12.66 12.66 0 0 1-4.82 4.81 13.41 13.41 0 0 1-6.73 1.76 12.69 12.69 0 0 1-8.39-3c-1.68.39-3.26.7-4.72.91.29.34.59.67.92 1a16.85 16.85 0 0 0 12.31 5 17.11 17.11 0 0 0 17.22-17.23c-1.33.76-2.79 1.6-4.27 2.36z" fill="#323333"/><path d="M243.71 9.43c.16.31.3.62.44.94 2.66-.1 3.87.36 4.08.93.52 1.44-3.52 4.66-10.53 8a1.17 1.17 0 0 0-.66-.22 1.19 1.19 0 0 0-1.17 1.07c-.73.33-1.49.66-2.27 1a2.05 2.05 0 0 0-3.71 1.22 2 2 0 0 0 0 .24l-1 .37-1.41.5a3.61 3.61 0 0 0-6.82 2.11 60.69 60.69 0 0 1-7.2 1.5c-4.67.64-6.62.07-6.89-.67s.86-2.17 3.14-3.81q-.13-.49-.23-1c-2.75 1.94-4.32 3.76-3.82 5.13.38 1.06 1.81 1.59 4.26 1.59a27.6 27.6 0 0 0 3.68-.29 61.76 61.76 0 0 0 7.37-1.49 3.6 3.6 0 0 0 6.84-2.11l1.45-.51 1-.37a2.008 2.008 0 0 0 3.73-1.49q1.11-.47 2.19-1a1.19 1.19 0 0 0 .88.4 1.2 1.2 0 0 0 1.2-1.2 1.13 1.13 0 0 0 0-.16c6.74-3.27 11.78-6.87 10.93-9.19-.49-1.16-2.33-1.67-5.48-1.49z" fill="#323333"/></svg>
